<?xml version="1.0" encoding="UTF-8" standalone="no"?>
<!DOCTYPE svg PUBLIC "-//W3C//DTD SVG 1.1//EN"
 "http://www.w3.org/Graphics/SVG/1.1/DTD/svg11.dtd">
<!-- Generated by graphviz version 2.49.3 (20211104.1129)
 -->
<!-- Title: snakemake_dag Pages: 1 -->
<svg width="217pt" height="548pt"
 viewBox="0.00 0.00 216.50 548.00" xmlns="http://www.w3.org/2000/svg" xmlns:xlink="http://www.w3.org/1999/xlink">
<g id="graph0" class="graph" transform="scale(1 1) rotate(0) translate(4 544)">
<title>snakemake_dag</title>
<polygon fill="white" stroke="transparent" points="-4,4 -4,-544 212.5,-544 212.5,4 -4,4"/>
<!-- 0 -->
<g id="node1" class="node">
<title>0</title>
<path fill="none" stroke="#d8bc56" stroke-width="2" d="M103,-36C103,-36 41,-36 41,-36 35,-36 29,-30 29,-24 29,-24 29,-12 29,-12 29,-6 35,0 41,0 41,0 103,0 103,0 109,0 115,-6 115,-12 115,-12 115,-24 115,-24 115,-30 109,-36 103,-36"/>
<text text-anchor="middle" x="72" y="-15.5" font-family="sans" font-size="10.00">salsa_scaffold</text>
</g>
<!-- 1 -->
<g id="node2" class="node">
<title>1</title>
<path fill="none" stroke="#bed856" stroke-width="2" stroke-dasharray="5,2" d="M111,-468C111,-468 65,-468 65,-468 59,-468 53,-462 53,-456 53,-456 53,-444 53,-444 53,-438 59,-432 65,-432 65,-432 111,-432 111,-432 117,-432 123,-438 123,-444 123,-444 123,-456 123,-456 123,-462 117,-468 111,-468"/>
<text text-anchor="middle" x="88" y="-447.5" font-family="sans" font-size="10.00">unzip_data</text>
</g>
<!-- 1&#45;&gt;0 -->
<g id="edge1" class="edge">
<title>1&#45;&gt;0</title>
<path fill="none" stroke="grey" stroke-width="2" d="M68.47,-431.86C42.54,-407.11 0,-358.63 0,-307 0,-307 0,-307 0,-161 0,-116.35 28.66,-71.52 49.82,-44.51"/>
<polygon fill="grey" stroke="grey" stroke-width="2" points="52.82,-46.36 56.38,-36.38 47.37,-41.96 52.82,-46.36"/>
</g>
<!-- 3 -->
<g id="node4" class="node">
<title>3</title>
<path fill="none" stroke="#d88d56" stroke-width="2" stroke-dasharray="5,2" d="M104,-324C104,-324 40,-324 40,-324 34,-324 28,-318 28,-312 28,-312 28,-300 28,-300 28,-294 34,-288 40,-288 40,-288 104,-288 104,-288 110,-288 116,-294 116,-300 116,-300 116,-312 116,-312 116,-318 110,-324 104,-324"/>
<text text-anchor="middle" x="72" y="-303.5" font-family="sans" font-size="10.00">contigs_length</text>
</g>
<!-- 1&#45;&gt;3 -->
<g id="edge5" class="edge">
<title>1&#45;&gt;3</title>
<path fill="none" stroke="grey" stroke-width="2" d="M86.07,-431.87C83.34,-407.67 78.33,-363.21 75.09,-334.39"/>
<polygon fill="grey" stroke="grey" stroke-width="2" points="78.53,-333.73 73.94,-324.19 71.58,-334.52 78.53,-333.73"/>
</g>
<!-- 7 -->
<g id="node8" class="node">
<title>7</title>
<path fill="none" stroke="#56d88a" stroke-width="2" d="M193.5,-324C193.5,-324 146.5,-324 146.5,-324 140.5,-324 134.5,-318 134.5,-312 134.5,-312 134.5,-300 134.5,-300 134.5,-294 140.5,-288 146.5,-288 146.5,-288 193.5,-288 193.5,-288 199.5,-288 205.5,-294 205.5,-300 205.5,-300 205.5,-312 205.5,-312 205.5,-318 199.5,-324 193.5,-324"/>
<text text-anchor="middle" x="170" y="-303.5" font-family="sans" font-size="10.00">map_reads</text>
</g>
<!-- 1&#45;&gt;7 -->
<g id="edge10" class="edge">
<title>1&#45;&gt;7</title>
<path fill="none" stroke="grey" stroke-width="2" d="M93.63,-431.89C100.08,-413.43 111.64,-383.52 126,-360 131.95,-350.25 139.58,-340.41 146.82,-331.89"/>
<polygon fill="grey" stroke="grey" stroke-width="2" points="149.61,-334 153.56,-324.17 144.34,-329.4 149.61,-334"/>
</g>
<!-- 8 -->
<g id="node9" class="node">
<title>8</title>
<path fill="none" stroke="#56d8c1" stroke-width="2" d="M196.5,-396C196.5,-396 147.5,-396 147.5,-396 141.5,-396 135.5,-390 135.5,-384 135.5,-384 135.5,-372 135.5,-372 135.5,-366 141.5,-360 147.5,-360 147.5,-360 196.5,-360 196.5,-360 202.5,-360 208.5,-366 208.5,-372 208.5,-372 208.5,-384 208.5,-384 208.5,-390 202.5,-396 196.5,-396"/>
<text text-anchor="middle" x="172" y="-375.5" font-family="sans" font-size="10.00">build_index</text>
</g>
<!-- 1&#45;&gt;8 -->
<g id="edge11" class="edge">
<title>1&#45;&gt;8</title>
<path fill="none" stroke="grey" stroke-width="2" d="M108.76,-431.7C119.24,-422.97 132.11,-412.24 143.5,-402.75"/>
<polygon fill="grey" stroke="grey" stroke-width="2" points="146.03,-405.19 151.47,-396.1 141.55,-399.82 146.03,-405.19"/>
</g>
<!-- 2 -->
<g id="node3" class="node">
<title>2</title>
<path fill="none" stroke="#56c1d8" stroke-width="2" stroke-dasharray="5,2" d="M121.5,-540C121.5,-540 54.5,-540 54.5,-540 48.5,-540 42.5,-534 42.5,-528 42.5,-528 42.5,-516 42.5,-516 42.5,-510 48.5,-504 54.5,-504 54.5,-504 121.5,-504 121.5,-504 127.5,-504 133.5,-510 133.5,-516 133.5,-516 133.5,-528 133.5,-528 133.5,-534 127.5,-540 121.5,-540"/>
<text text-anchor="middle" x="88" y="-519.5" font-family="sans" font-size="10.00">download_data</text>
</g>
<!-- 2&#45;&gt;1 -->
<g id="edge4" class="edge">
<title>2&#45;&gt;1</title>
<path fill="none" stroke="grey" stroke-width="2" d="M88,-503.7C88,-495.98 88,-486.71 88,-478.11"/>
<polygon fill="grey" stroke="grey" stroke-width="2" points="91.5,-478.1 88,-468.1 84.5,-478.1 91.5,-478.1"/>
</g>
<!-- 3&#45;&gt;0 -->
<g id="edge2" class="edge">
<title>3&#45;&gt;0</title>
<path fill="none" stroke="grey" stroke-width="2" d="M72,-287.97C72,-240.29 72,-105.18 72,-46.63"/>
<polygon fill="grey" stroke="grey" stroke-width="2" points="75.5,-46.31 72,-36.31 68.5,-46.31 75.5,-46.31"/>
</g>
<!-- 4 -->
<g id="node5" class="node">
<title>4</title>
<path fill="none" stroke="#568ad8" stroke-width="2" d="M148,-108C148,-108 118,-108 118,-108 112,-108 106,-102 106,-96 106,-96 106,-84 106,-84 106,-78 112,-72 118,-72 118,-72 148,-72 148,-72 154,-72 160,-78 160,-84 160,-84 160,-96 160,-96 160,-102 154,-108 148,-108"/>
<text text-anchor="middle" x="133" y="-87.5" font-family="sans" font-size="10.00">sortBed</text>
</g>
<!-- 4&#45;&gt;0 -->
<g id="edge3" class="edge">
<title>4&#45;&gt;0</title>
<path fill="none" stroke="grey" stroke-width="2" d="M117.92,-71.7C110.61,-63.3 101.69,-53.07 93.66,-43.86"/>
<polygon fill="grey" stroke="grey" stroke-width="2" points="96.11,-41.34 86.91,-36.1 90.84,-45.94 96.11,-41.34"/>
</g>
<!-- 5 -->
<g id="node6" class="node">
<title>5</title>
<path fill="none" stroke="#59d856" stroke-width="2" d="M180.5,-180C180.5,-180 127.5,-180 127.5,-180 121.5,-180 115.5,-174 115.5,-168 115.5,-168 115.5,-156 115.5,-156 115.5,-150 121.5,-144 127.5,-144 127.5,-144 180.5,-144 180.5,-144 186.5,-144 192.5,-150 192.5,-156 192.5,-156 192.5,-168 192.5,-168 192.5,-174 186.5,-180 180.5,-180"/>
<text text-anchor="middle" x="154" y="-159.5" font-family="sans" font-size="10.00">bam_to_bed</text>
</g>
<!-- 5&#45;&gt;4 -->
<g id="edge6" class="edge">
<title>5&#45;&gt;4</title>
<path fill="none" stroke="grey" stroke-width="2" d="M148.81,-143.7C146.47,-135.9 143.65,-126.51 141.05,-117.83"/>
<polygon fill="grey" stroke="grey" stroke-width="2" points="144.36,-116.68 138.13,-108.1 137.65,-118.69 144.36,-116.68"/>
</g>
<!-- 6 -->
<g id="node7" class="node">
<title>6</title>
<path fill="none" stroke="#88d856" stroke-width="2" d="M181,-252C181,-252 143,-252 143,-252 137,-252 131,-246 131,-240 131,-240 131,-228 131,-228 131,-222 137,-216 143,-216 143,-216 181,-216 181,-216 187,-216 193,-222 193,-228 193,-228 193,-240 193,-240 193,-246 187,-252 181,-252"/>
<text text-anchor="middle" x="162" y="-231.5" font-family="sans" font-size="10.00">samtools</text>
</g>
<!-- 6&#45;&gt;5 -->
<g id="edge7" class="edge">
<title>6&#45;&gt;5</title>
<path fill="none" stroke="grey" stroke-width="2" d="M160.02,-215.7C159.14,-207.98 158.08,-198.71 157.1,-190.11"/>
<polygon fill="grey" stroke="grey" stroke-width="2" points="160.57,-189.64 155.95,-180.1 153.61,-190.44 160.57,-189.64"/>
</g>
<!-- 7&#45;&gt;6 -->
<g id="edge8" class="edge">
<title>7&#45;&gt;6</title>
<path fill="none" stroke="grey" stroke-width="2" d="M168.02,-287.7C167.14,-279.98 166.08,-270.71 165.1,-262.11"/>
<polygon fill="grey" stroke="grey" stroke-width="2" points="168.57,-261.64 163.95,-252.1 161.61,-262.44 168.57,-261.64"/>
</g>
<!-- 8&#45;&gt;7 -->
<g id="edge9" class="edge">
<title>8&#45;&gt;7</title>
<path fill="none" stroke="grey" stroke-width="2" d="M171.51,-359.7C171.29,-351.98 171.02,-342.71 170.77,-334.11"/>
<polygon fill="grey" stroke="grey" stroke-width="2" points="174.27,-334 170.49,-324.1 167.28,-334.2 174.27,-334"/>
</g>
</g>
</svg>
