<?xml version="1.0" encoding="UTF-8" standalone="no"?>
<!DOCTYPE svg PUBLIC "-//W3C//DTD SVG 1.1//EN"
 "http://www.w3.org/Graphics/SVG/1.1/DTD/svg11.dtd">
<!-- Generated by graphviz version 2.49.3 (20211104.1129)
 -->
<!-- Title: snakemake_dag Pages: 1 -->
<svg width="201pt" height="332pt"
 viewBox="0.00 0.00 200.50 332.00" xmlns="http://www.w3.org/2000/svg" xmlns:xlink="http://www.w3.org/1999/xlink">
<g id="graph0" class="graph" transform="scale(1 1) rotate(0) translate(4 328)">
<title>snakemake_dag</title>
<polygon fill="white" stroke="transparent" points="-4,4 -4,-328 196.5,-328 196.5,4 -4,4"/>
<!-- 0 -->
<g id="node1" class="node">
<title>0</title>
<path fill="none" stroke="#56d8d8" stroke-width="2" stroke-dasharray="5,2" d="M119,-36C119,-36 66,-36 66,-36 60,-36 54,-30 54,-24 54,-24 54,-12 54,-12 54,-6 60,0 66,0 66,0 119,0 119,0 125,0 131,-6 131,-12 131,-12 131,-24 131,-24 131,-30 125,-36 119,-36"/>
<text text-anchor="middle" x="92.5" y="-15.5" font-family="sans" font-size="10.00">bam_to_bed</text>
</g>
<!-- 1 -->
<g id="node2" class="node">
<title>1</title>
<path fill="none" stroke="#56d89a" stroke-width="2" stroke-dasharray="5,2" d="M111.5,-108C111.5,-108 73.5,-108 73.5,-108 67.5,-108 61.5,-102 61.5,-96 61.5,-96 61.5,-84 61.5,-84 61.5,-78 67.5,-72 73.5,-72 73.5,-72 111.5,-72 111.5,-72 117.5,-72 123.5,-78 123.5,-84 123.5,-84 123.5,-96 123.5,-96 123.5,-102 117.5,-108 111.5,-108"/>
<text text-anchor="middle" x="92.5" y="-87.5" font-family="sans" font-size="10.00">samtools</text>
</g>
<!-- 1&#45;&gt;0 -->
<g id="edge1" class="edge">
<title>1&#45;&gt;0</title>
<path fill="none" stroke="grey" stroke-width="2" d="M92.5,-71.7C92.5,-63.98 92.5,-54.71 92.5,-46.11"/>
<polygon fill="grey" stroke="grey" stroke-width="2" points="96,-46.1 92.5,-36.1 89,-46.1 96,-46.1"/>
</g>
<!-- 2 -->
<g id="node3" class="node">
<title>2</title>
<path fill="none" stroke="#569ad8" stroke-width="2" stroke-dasharray="5,2" d="M116,-180C116,-180 69,-180 69,-180 63,-180 57,-174 57,-168 57,-168 57,-156 57,-156 57,-150 63,-144 69,-144 69,-144 116,-144 116,-144 122,-144 128,-150 128,-156 128,-156 128,-168 128,-168 128,-174 122,-180 116,-180"/>
<text text-anchor="middle" x="92.5" y="-159.5" font-family="sans" font-size="10.00">map_reads</text>
</g>
<!-- 2&#45;&gt;1 -->
<g id="edge2" class="edge">
<title>2&#45;&gt;1</title>
<path fill="none" stroke="grey" stroke-width="2" d="M92.5,-143.7C92.5,-135.98 92.5,-126.71 92.5,-118.11"/>
<polygon fill="grey" stroke="grey" stroke-width="2" points="96,-118.1 92.5,-108.1 89,-118.1 96,-118.1"/>
</g>
<!-- 3 -->
<g id="node4" class="node">
<title>3</title>
<path fill="none" stroke="#59d856" stroke-width="2" stroke-dasharray="5,2" d="M66,-252C66,-252 17,-252 17,-252 11,-252 5,-246 5,-240 5,-240 5,-228 5,-228 5,-222 11,-216 17,-216 17,-216 66,-216 66,-216 72,-216 78,-222 78,-228 78,-228 78,-240 78,-240 78,-246 72,-252 66,-252"/>
<text text-anchor="middle" x="41.5" y="-231.5" font-family="sans" font-size="10.00">build_index</text>
</g>
<!-- 3&#45;&gt;2 -->
<g id="edge3" class="edge">
<title>3&#45;&gt;2</title>
<path fill="none" stroke="grey" stroke-width="2" d="M54.11,-215.7C60.1,-207.47 67.38,-197.48 73.98,-188.42"/>
<polygon fill="grey" stroke="grey" stroke-width="2" points="76.98,-190.25 80.04,-180.1 71.32,-186.13 76.98,-190.25"/>
</g>
<!-- 4 -->
<g id="node5" class="node">
<title>4</title>
<path fill="none" stroke="#97d856" stroke-width="2" stroke-dasharray="5,2" d="M71,-324C71,-324 12,-324 12,-324 6,-324 0,-318 0,-312 0,-312 0,-300 0,-300 0,-294 6,-288 12,-288 12,-288 71,-288 71,-288 77,-288 83,-294 83,-300 83,-300 83,-312 83,-312 83,-318 77,-324 71,-324"/>
<text text-anchor="middle" x="41.5" y="-303.5" font-family="sans" font-size="10.00">download_ref</text>
</g>
<!-- 4&#45;&gt;3 -->
<g id="edge5" class="edge">
<title>4&#45;&gt;3</title>
<path fill="none" stroke="grey" stroke-width="2" d="M41.5,-287.7C41.5,-279.98 41.5,-270.71 41.5,-262.11"/>
<polygon fill="grey" stroke="grey" stroke-width="2" points="45,-262.1 41.5,-252.1 38,-262.1 45,-262.1"/>
</g>
<!-- 5 -->
<g id="node6" class="node">
<title>5</title>
<path fill="none" stroke="#d89556" stroke-width="2" stroke-dasharray="5,2" d="M180.5,-252C180.5,-252 108.5,-252 108.5,-252 102.5,-252 96.5,-246 96.5,-240 96.5,-240 96.5,-228 96.5,-228 96.5,-222 102.5,-216 108.5,-216 108.5,-216 180.5,-216 180.5,-216 186.5,-216 192.5,-222 192.5,-228 192.5,-228 192.5,-240 192.5,-240 192.5,-246 186.5,-252 180.5,-252"/>
<text text-anchor="middle" x="144.5" y="-231.5" font-family="sans" font-size="10.00">download_reads</text>
</g>
<!-- 5&#45;&gt;2 -->
<g id="edge4" class="edge">
<title>5&#45;&gt;2</title>
<path fill="none" stroke="grey" stroke-width="2" d="M131.65,-215.7C125.47,-207.39 117.96,-197.28 111.18,-188.14"/>
<polygon fill="grey" stroke="grey" stroke-width="2" points="113.98,-186.04 105.21,-180.1 108.36,-190.22 113.98,-186.04"/>
</g>
</g>
</svg>
