<?xml version="1.0" encoding="UTF-8" standalone="no"?>
<!DOCTYPE svg PUBLIC "-//W3C//DTD SVG 1.1//EN"
 "http://www.w3.org/Graphics/SVG/1.1/DTD/svg11.dtd">
<!-- Generated by graphviz version 2.49.3 (20211104.1129)
 -->
<!-- Title: snakemake_dag Pages: 1 -->
<svg width="279pt" height="476pt"
 viewBox="0.00 0.00 279.00 476.00" xmlns="http://www.w3.org/2000/svg" xmlns:xlink="http://www.w3.org/1999/xlink">
<g id="graph0" class="graph" transform="scale(1 1) rotate(0) translate(4 472)">
<title>snakemake_dag</title>
<polygon fill="white" stroke="transparent" points="-4,4 -4,-472 275,-472 275,4 -4,4"/>
<!-- 0 -->
<g id="node1" class="node">
<title>0</title>
<path fill="none" stroke="#bed856" stroke-width="2" stroke-dasharray="5,2" d="M103,-36C103,-36 41,-36 41,-36 35,-36 29,-30 29,-24 29,-24 29,-12 29,-12 29,-6 35,0 41,0 41,0 103,0 103,0 109,0 115,-6 115,-12 115,-12 115,-24 115,-24 115,-30 109,-36 103,-36"/>
<text text-anchor="middle" x="72" y="-15.5" font-family="sans" font-size="10.00">salsa_scaffold</text>
</g>
<!-- 1 -->
<g id="node2" class="node">
<title>1</title>
<path fill="none" stroke="#568ad8" stroke-width="2" stroke-dasharray="5,2" d="M84.5,-468C84.5,-468 25.5,-468 25.5,-468 19.5,-468 13.5,-462 13.5,-456 13.5,-456 13.5,-444 13.5,-444 13.5,-438 19.5,-432 25.5,-432 25.5,-432 84.5,-432 84.5,-432 90.5,-432 96.5,-438 96.5,-444 96.5,-444 96.5,-456 96.5,-456 96.5,-462 90.5,-468 84.5,-468"/>
<text text-anchor="middle" x="55" y="-447.5" font-family="sans" font-size="10.00">download_ref</text>
</g>
<!-- 1&#45;&gt;0 -->
<g id="edge1" class="edge">
<title>1&#45;&gt;0</title>
<path fill="none" stroke="grey" stroke-width="2" d="M43.6,-431.9C27.49,-406.02 0,-354.85 0,-307 0,-307 0,-307 0,-161 0,-116.35 28.66,-71.52 49.82,-44.51"/>
<polygon fill="grey" stroke="grey" stroke-width="2" points="52.82,-46.36 56.38,-36.38 47.37,-41.96 52.82,-46.36"/>
</g>
<!-- 2 -->
<g id="node3" class="node">
<title>2</title>
<path fill="none" stroke="#d8bc56" stroke-width="2" stroke-dasharray="5,2" d="M104,-324C104,-324 40,-324 40,-324 34,-324 28,-318 28,-312 28,-312 28,-300 28,-300 28,-294 34,-288 40,-288 40,-288 104,-288 104,-288 110,-288 116,-294 116,-300 116,-300 116,-312 116,-312 116,-318 110,-324 104,-324"/>
<text text-anchor="middle" x="72" y="-303.5" font-family="sans" font-size="10.00">contigs_length</text>
</g>
<!-- 1&#45;&gt;2 -->
<g id="edge4" class="edge">
<title>1&#45;&gt;2</title>
<path fill="none" stroke="grey" stroke-width="2" d="M57.05,-431.87C59.95,-407.67 65.27,-363.21 68.72,-334.39"/>
<polygon fill="grey" stroke="grey" stroke-width="2" points="72.23,-334.53 69.94,-324.19 65.28,-333.7 72.23,-334.53"/>
</g>
<!-- 7 -->
<g id="node8" class="node">
<title>7</title>
<path fill="none" stroke="#56d8c1" stroke-width="2" stroke-dasharray="5,2" d="M144.5,-396C144.5,-396 95.5,-396 95.5,-396 89.5,-396 83.5,-390 83.5,-384 83.5,-384 83.5,-372 83.5,-372 83.5,-366 89.5,-360 95.5,-360 95.5,-360 144.5,-360 144.5,-360 150.5,-360 156.5,-366 156.5,-372 156.5,-372 156.5,-384 156.5,-384 156.5,-390 150.5,-396 144.5,-396"/>
<text text-anchor="middle" x="120" y="-375.5" font-family="sans" font-size="10.00">build_index</text>
</g>
<!-- 1&#45;&gt;7 -->
<g id="edge10" class="edge">
<title>1&#45;&gt;7</title>
<path fill="none" stroke="grey" stroke-width="2" d="M71.07,-431.7C78.94,-423.22 88.56,-412.86 97.17,-403.58"/>
<polygon fill="grey" stroke="grey" stroke-width="2" points="99.88,-405.81 104.12,-396.1 94.75,-401.05 99.88,-405.81"/>
</g>
<!-- 2&#45;&gt;0 -->
<g id="edge2" class="edge">
<title>2&#45;&gt;0</title>
<path fill="none" stroke="grey" stroke-width="2" d="M72,-287.97C72,-240.29 72,-105.18 72,-46.63"/>
<polygon fill="grey" stroke="grey" stroke-width="2" points="75.5,-46.31 72,-36.31 68.5,-46.31 75.5,-46.31"/>
</g>
<!-- 3 -->
<g id="node4" class="node">
<title>3</title>
<path fill="none" stroke="#d85656" stroke-width="2" stroke-dasharray="5,2" d="M155,-108C155,-108 125,-108 125,-108 119,-108 113,-102 113,-96 113,-96 113,-84 113,-84 113,-78 119,-72 125,-72 125,-72 155,-72 155,-72 161,-72 167,-78 167,-84 167,-84 167,-96 167,-96 167,-102 161,-108 155,-108"/>
<text text-anchor="middle" x="140" y="-87.5" font-family="sans" font-size="10.00">sortBed</text>
</g>
<!-- 3&#45;&gt;0 -->
<g id="edge3" class="edge">
<title>3&#45;&gt;0</title>
<path fill="none" stroke="grey" stroke-width="2" d="M123.19,-71.7C114.87,-63.14 104.69,-52.66 95.61,-43.3"/>
<polygon fill="grey" stroke="grey" stroke-width="2" points="98.09,-40.84 88.62,-36.1 93.07,-45.72 98.09,-40.84"/>
</g>
<!-- 4 -->
<g id="node5" class="node">
<title>4</title>
<path fill="none" stroke="#d88d56" stroke-width="2" stroke-dasharray="5,2" d="M180.5,-180C180.5,-180 127.5,-180 127.5,-180 121.5,-180 115.5,-174 115.5,-168 115.5,-168 115.5,-156 115.5,-156 115.5,-150 121.5,-144 127.5,-144 127.5,-144 180.5,-144 180.5,-144 186.5,-144 192.5,-150 192.5,-156 192.5,-156 192.5,-168 192.5,-168 192.5,-174 186.5,-180 180.5,-180"/>
<text text-anchor="middle" x="154" y="-159.5" font-family="sans" font-size="10.00">bam_to_bed</text>
</g>
<!-- 4&#45;&gt;3 -->
<g id="edge5" class="edge">
<title>4&#45;&gt;3</title>
<path fill="none" stroke="grey" stroke-width="2" d="M150.54,-143.7C149,-135.98 147.14,-126.71 145.42,-118.11"/>
<polygon fill="grey" stroke="grey" stroke-width="2" points="148.81,-117.22 143.42,-108.1 141.95,-118.6 148.81,-117.22"/>
</g>
<!-- 5 -->
<g id="node6" class="node">
<title>5</title>
<path fill="none" stroke="#88d856" stroke-width="2" stroke-dasharray="5,2" d="M181,-252C181,-252 143,-252 143,-252 137,-252 131,-246 131,-240 131,-240 131,-228 131,-228 131,-222 137,-216 143,-216 143,-216 181,-216 181,-216 187,-216 193,-222 193,-228 193,-228 193,-240 193,-240 193,-246 187,-252 181,-252"/>
<text text-anchor="middle" x="162" y="-231.5" font-family="sans" font-size="10.00">samtools</text>
</g>
<!-- 5&#45;&gt;4 -->
<g id="edge6" class="edge">
<title>5&#45;&gt;4</title>
<path fill="none" stroke="grey" stroke-width="2" d="M160.02,-215.7C159.14,-207.98 158.08,-198.71 157.1,-190.11"/>
<polygon fill="grey" stroke="grey" stroke-width="2" points="160.57,-189.64 155.95,-180.1 153.61,-190.44 160.57,-189.64"/>
</g>
<!-- 6 -->
<g id="node7" class="node">
<title>6</title>
<path fill="none" stroke="#56d88a" stroke-width="2" stroke-dasharray="5,2" d="M193.5,-324C193.5,-324 146.5,-324 146.5,-324 140.5,-324 134.5,-318 134.5,-312 134.5,-312 134.5,-300 134.5,-300 134.5,-294 140.5,-288 146.5,-288 146.5,-288 193.5,-288 193.5,-288 199.5,-288 205.5,-294 205.5,-300 205.5,-300 205.5,-312 205.5,-312 205.5,-318 199.5,-324 193.5,-324"/>
<text text-anchor="middle" x="170" y="-303.5" font-family="sans" font-size="10.00">map_reads</text>
</g>
<!-- 6&#45;&gt;5 -->
<g id="edge7" class="edge">
<title>6&#45;&gt;5</title>
<path fill="none" stroke="grey" stroke-width="2" d="M168.02,-287.7C167.14,-279.98 166.08,-270.71 165.1,-262.11"/>
<polygon fill="grey" stroke="grey" stroke-width="2" points="168.57,-261.64 163.95,-252.1 161.61,-262.44 168.57,-261.64"/>
</g>
<!-- 7&#45;&gt;6 -->
<g id="edge8" class="edge">
<title>7&#45;&gt;6</title>
<path fill="none" stroke="grey" stroke-width="2" d="M132.36,-359.7C138.23,-351.47 145.37,-341.48 151.84,-332.42"/>
<polygon fill="grey" stroke="grey" stroke-width="2" points="154.82,-334.28 157.78,-324.1 149.12,-330.21 154.82,-334.28"/>
</g>
<!-- 8 -->
<g id="node9" class="node">
<title>8</title>
<path fill="none" stroke="#59d856" stroke-width="2" stroke-dasharray="5,2" d="M259,-396C259,-396 187,-396 187,-396 181,-396 175,-390 175,-384 175,-384 175,-372 175,-372 175,-366 181,-360 187,-360 187,-360 259,-360 259,-360 265,-360 271,-366 271,-372 271,-372 271,-384 271,-384 271,-390 265,-396 259,-396"/>
<text text-anchor="middle" x="223" y="-375.5" font-family="sans" font-size="10.00">download_reads</text>
</g>
<!-- 8&#45;&gt;6 -->
<g id="edge9" class="edge">
<title>8&#45;&gt;6</title>
<path fill="none" stroke="grey" stroke-width="2" d="M209.9,-359.7C203.61,-351.39 195.95,-341.28 189.04,-332.14"/>
<polygon fill="grey" stroke="grey" stroke-width="2" points="191.78,-329.96 182.95,-324.1 186.2,-334.19 191.78,-329.96"/>
</g>
</g>
</svg>
