<?xml version="1.0" encoding="UTF-8" standalone="no"?>
<!DOCTYPE svg PUBLIC "-//W3C//DTD SVG 1.1//EN"
 "http://www.w3.org/Graphics/SVG/1.1/DTD/svg11.dtd">
<!-- Generated by graphviz version 2.49.3 (20211104.1129)
 -->
<!-- Title: snakemake_dag Pages: 1 -->
<svg width="123pt" height="476pt"
 viewBox="0.00 0.00 123.00 476.00" xmlns="http://www.w3.org/2000/svg" xmlns:xlink="http://www.w3.org/1999/xlink">
<g id="graph0" class="graph" transform="scale(1 1) rotate(0) translate(4 472)">
<title>snakemake_dag</title>
<polygon fill="white" stroke="transparent" points="-4,4 -4,-472 119,-472 119,4 -4,4"/>
<!-- 0 -->
<g id="node1" class="node">
<title>0</title>
<path fill="none" stroke="#88d856" stroke-width="2" d="M60.5,-36C60.5,-36 30.5,-36 30.5,-36 24.5,-36 18.5,-30 18.5,-24 18.5,-24 18.5,-12 18.5,-12 18.5,-6 24.5,0 30.5,0 30.5,0 60.5,0 60.5,0 66.5,0 72.5,-6 72.5,-12 72.5,-12 72.5,-24 72.5,-24 72.5,-30 66.5,-36 60.5,-36"/>
<text text-anchor="middle" x="45.5" y="-15.5" font-family="sans" font-size="10.00">sortBed</text>
</g>
<!-- 1 -->
<g id="node2" class="node">
<title>1</title>
<path fill="none" stroke="#568ad8" stroke-width="2" d="M72,-108C72,-108 19,-108 19,-108 13,-108 7,-102 7,-96 7,-96 7,-84 7,-84 7,-78 13,-72 19,-72 19,-72 72,-72 72,-72 78,-72 84,-78 84,-84 84,-84 84,-96 84,-96 84,-102 78,-108 72,-108"/>
<text text-anchor="middle" x="45.5" y="-87.5" font-family="sans" font-size="10.00">bam_to_bed</text>
</g>
<!-- 1&#45;&gt;0 -->
<g id="edge1" class="edge">
<title>1&#45;&gt;0</title>
<path fill="none" stroke="grey" stroke-width="2" d="M45.5,-71.7C45.5,-63.98 45.5,-54.71 45.5,-46.11"/>
<polygon fill="grey" stroke="grey" stroke-width="2" points="49,-46.1 45.5,-36.1 42,-46.1 49,-46.1"/>
</g>
<!-- 2 -->
<g id="node3" class="node">
<title>2</title>
<path fill="none" stroke="#56d88a" stroke-width="2" d="M64.5,-180C64.5,-180 26.5,-180 26.5,-180 20.5,-180 14.5,-174 14.5,-168 14.5,-168 14.5,-156 14.5,-156 14.5,-150 20.5,-144 26.5,-144 26.5,-144 64.5,-144 64.5,-144 70.5,-144 76.5,-150 76.5,-156 76.5,-156 76.5,-168 76.5,-168 76.5,-174 70.5,-180 64.5,-180"/>
<text text-anchor="middle" x="45.5" y="-159.5" font-family="sans" font-size="10.00">samtools</text>
</g>
<!-- 2&#45;&gt;1 -->
<g id="edge2" class="edge">
<title>2&#45;&gt;1</title>
<path fill="none" stroke="grey" stroke-width="2" d="M45.5,-143.7C45.5,-135.98 45.5,-126.71 45.5,-118.11"/>
<polygon fill="grey" stroke="grey" stroke-width="2" points="49,-118.1 45.5,-108.1 42,-118.1 49,-118.1"/>
</g>
<!-- 3 -->
<g id="node4" class="node">
<title>3</title>
<path fill="none" stroke="#56d8c1" stroke-width="2" d="M69,-252C69,-252 22,-252 22,-252 16,-252 10,-246 10,-240 10,-240 10,-228 10,-228 10,-222 16,-216 22,-216 22,-216 69,-216 69,-216 75,-216 81,-222 81,-228 81,-228 81,-240 81,-240 81,-246 75,-252 69,-252"/>
<text text-anchor="middle" x="45.5" y="-231.5" font-family="sans" font-size="10.00">map_reads</text>
</g>
<!-- 3&#45;&gt;2 -->
<g id="edge3" class="edge">
<title>3&#45;&gt;2</title>
<path fill="none" stroke="grey" stroke-width="2" d="M45.5,-215.7C45.5,-207.98 45.5,-198.71 45.5,-190.11"/>
<polygon fill="grey" stroke="grey" stroke-width="2" points="49,-190.1 45.5,-180.1 42,-190.1 49,-190.1"/>
</g>
<!-- 4 -->
<g id="node5" class="node">
<title>4</title>
<path fill="none" stroke="#d8bc56" stroke-width="2" d="M103,-324C103,-324 54,-324 54,-324 48,-324 42,-318 42,-312 42,-312 42,-300 42,-300 42,-294 48,-288 54,-288 54,-288 103,-288 103,-288 109,-288 115,-294 115,-300 115,-300 115,-312 115,-312 115,-318 109,-324 103,-324"/>
<text text-anchor="middle" x="78.5" y="-303.5" font-family="sans" font-size="10.00">build_index</text>
</g>
<!-- 4&#45;&gt;3 -->
<g id="edge4" class="edge">
<title>4&#45;&gt;3</title>
<path fill="none" stroke="grey" stroke-width="2" d="M70.34,-287.7C66.59,-279.73 62.05,-270.1 57.88,-261.26"/>
<polygon fill="grey" stroke="grey" stroke-width="2" points="60.99,-259.66 53.56,-252.1 54.66,-262.64 60.99,-259.66"/>
</g>
<!-- 5 -->
<g id="node6" class="node">
<title>5</title>
<path fill="none" stroke="#56c1d8" stroke-width="2" stroke-dasharray="5,2" d="M68.5,-396C68.5,-396 22.5,-396 22.5,-396 16.5,-396 10.5,-390 10.5,-384 10.5,-384 10.5,-372 10.5,-372 10.5,-366 16.5,-360 22.5,-360 22.5,-360 68.5,-360 68.5,-360 74.5,-360 80.5,-366 80.5,-372 80.5,-372 80.5,-384 80.5,-384 80.5,-390 74.5,-396 68.5,-396"/>
<text text-anchor="middle" x="45.5" y="-375.5" font-family="sans" font-size="10.00">unzip_data</text>
</g>
<!-- 5&#45;&gt;3 -->
<g id="edge5" class="edge">
<title>5&#45;&gt;3</title>
<path fill="none" stroke="grey" stroke-width="2" d="M40.09,-359.53C37.2,-349.29 33.95,-336.04 32.5,-324 30.58,-308.12 30.58,-303.88 32.5,-288 33.52,-279.53 35.43,-270.47 37.48,-262.28"/>
<polygon fill="grey" stroke="grey" stroke-width="2" points="40.9,-263.03 40.09,-252.47 34.14,-261.23 40.9,-263.03"/>
</g>
<!-- 5&#45;&gt;4 -->
<g id="edge6" class="edge">
<title>5&#45;&gt;4</title>
<path fill="none" stroke="grey" stroke-width="2" d="M53.66,-359.7C57.41,-351.73 61.95,-342.1 66.12,-333.26"/>
<polygon fill="grey" stroke="grey" stroke-width="2" points="69.34,-334.64 70.44,-324.1 63.01,-331.66 69.34,-334.64"/>
</g>
<!-- 6 -->
<g id="node7" class="node">
<title>6</title>
<path fill="none" stroke="#bed856" stroke-width="2" stroke-dasharray="5,2" d="M79,-468C79,-468 12,-468 12,-468 6,-468 0,-462 0,-456 0,-456 0,-444 0,-444 0,-438 6,-432 12,-432 12,-432 79,-432 79,-432 85,-432 91,-438 91,-444 91,-444 91,-456 91,-456 91,-462 85,-468 79,-468"/>
<text text-anchor="middle" x="45.5" y="-447.5" font-family="sans" font-size="10.00">download_data</text>
</g>
<!-- 6&#45;&gt;5 -->
<g id="edge7" class="edge">
<title>6&#45;&gt;5</title>
<path fill="none" stroke="grey" stroke-width="2" d="M45.5,-431.7C45.5,-423.98 45.5,-414.71 45.5,-406.11"/>
<polygon fill="grey" stroke="grey" stroke-width="2" points="49,-406.1 45.5,-396.1 42,-406.1 49,-406.1"/>
</g>
</g>
</svg>
